HIERARCHY
ROOT Hips
{
    OFFSET 0.000000 0.000000 0.000000
    CHANNELS 6 Xposition Yposition Zposition Zrotation Xrotation Yrotation
    JOINT Spine
    {
        OFFSET -0.000000 14.517291 0.000000
        CHANNELS 3 Zrotation Xrotation Yrotation
        JOINT Spine1
        {
            OFFSET -0.000000 37.558300 0.000000
            CHANNELS 3 Zrotation Xrotation Yrotation
            JOINT Neck
            {
                OFFSET -0.000000 37.404057 3.400369
                CHANNELS 3 Zrotation Xrotation Yrotation
                JOINT Head
                {
                    OFFSET -0.000000 24.785618 -3.540803
                    CHANNELS 3 Zrotation Xrotation Yrotation
                    End Site
                    {
                        OFFSET -0.000000 35.408028 0.000000
                    }
                }
            }
            JOINT LeftShoulder
            {
                OFFSET 6.992933 33.973492 -0.192664
                CHANNELS 3 Zrotation Xrotation Yrotation
                JOINT LeftArm
                {
                    OFFSET 21.527611 0.000000 0.000000
                    CHANNELS 3 Zrotation Xrotation Yrotation
                    JOINT LeftForeArm
                    {
                        OFFSET 56.353916 0.000000 0.000000
                        CHANNELS 3 Zrotation Xrotation Yrotation
                        JOINT LeftHand
                        {
                            OFFSET 47.774071 0.000000 0.000000
                            CHANNELS 3 Zrotation Xrotation Yrotation
                            End Site
                            {
                                OFFSET 26.556021 0.000000 0.000000
                            }
                        }
                    }
                }
            }
            JOINT RightShoulder
            {
                OFFSET -7.065357 33.973492 -0.192664
                CHANNELS 3 Zrotation Xrotation Yrotation
                JOINT RightArm
                {
                    OFFSET -21.527611 0.000000 0.000000
                    CHANNELS 3 Zrotation Xrotation Yrotation
                    JOINT RightForeArm
                    {
                        OFFSET -56.353916 0.000000 0.000000
                        CHANNELS 3 Zrotation Xrotation Yrotation
                        JOINT RightHand
                        {
                            OFFSET -47.774071 0.000000 0.000000
                            CHANNELS 3 Zrotation Xrotation Yrotation
                            End Site
                            {
                                OFFSET -26.556021 0.000000 0.000000
                            }
                        }
                    }
                }
            }
        }
    }
    JOINT LeftUpLeg
    {
        OFFSET 17.704014 0.000000 0.000000
        CHANNELS 3 Zrotation Xrotation Yrotation
        JOINT LeftLeg
        {
            OFFSET -0.000000 -81.181816 0.000000
            CHANNELS 3 Zrotation Xrotation Yrotation
            JOINT LeftFoot
            {
                OFFSET -0.000000 -62.821102 0.000000
                CHANNELS 3 Zrotation Xrotation Yrotation
                JOINT LeftToeBase
                {
                    OFFSET -0.000000 -11.507608 26.556021
                    CHANNELS 3 Zrotation Xrotation Yrotation
                    End Site
                    {
                        OFFSET -0.000000 0.000000 7.081605
                    }
                }
            }
        }
    }
    JOINT RightUpLeg
    {
        OFFSET -17.704014 0.000000 0.000000
        CHANNELS 3 Zrotation Xrotation Yrotation
        JOINT RightLeg
        {
            OFFSET -0.000000 -81.181816 0.000000
            CHANNELS 3 Zrotation Xrotation Yrotation
            JOINT RightFoot
            {
                OFFSET -0.000000 -62.821102 0.000000
                CHANNELS 3 Zrotation Xrotation Yrotation
                JOINT RightToeBase
                {
                    OFFSET -0.000000 -11.507608 26.556021
                    CHANNELS 3 Zrotation Xrotation Yrotation
                    End Site
                    {
                        OFFSET -0.000000 0.000000 7.081605
                    }
                }
            }
        }
    }
}
MOTION
Frames:    10
Frame Time:    0.008333
-19.979385    161.764603    -76.075623    -8.740993    -26.134295    42.884502    4.085020    6.819042    -3.834453    2.889980    8.007814    -1.397355    17.211189    3.242234    -7.161433    7.572392    -5.595722    -8.095692    7.519477    4.241842    -17.687403    -36.648994    -20.184172    -52.016621    37.132095    -58.625847    -44.650749    -19.880213    -45.061588    -34.647652    12.294642    7.843534    -10.207721    33.119675    16.188971    15.797901    -12.854267    3.230145    35.199738    -22.809486    -0.257810    36.288631    28.410698    0.479892    4.583517    -5.539641    43.293987    -16.972591    9.973606    -25.753410    36.220974    0.000000    0.000000    0.000000    -84.961891    -43.920006    -52.070992    10.302611    17.192183    -9.339363    19.198687    10.075990    -34.357983    0.000000    0.000000    0.000000    
-19.990355    161.773041    -76.077545    -8.746100    -26.138906    42.881542    4.084726    6.845773    -3.821098    2.931149    7.946626    -1.393989    17.154734    3.306262    -7.183534    7.632753    -5.617681    -8.088999    7.490676    4.157935    -17.629280    -36.376072    -20.290108    -51.451355    37.502098    -58.585030    -44.146324    -19.939236    -45.004063    -34.725403    12.256421    7.871186    -10.190941    33.158981    16.152531    15.723206    -12.845689    3.254867    35.202522    -22.801254    -0.238082    36.313004    28.420177    0.488712    4.591339    -5.544209    43.264339    -16.930481    9.942101    -25.757362    36.190308    0.000000    0.000000    0.000000    -84.955505    -43.930801    -52.047955    10.297272    17.207560    -9.326097    19.224264    10.080431    -34.364223    0.000000    0.000000    0.000000    
-19.989256    161.787125    -76.073097    -8.731160    -26.172029    42.884838    4.107665    6.880120    -3.798421    2.939489    7.917470    -1.385376    17.101944    3.354694    -7.210341    7.709692    -5.636483    -8.087212    7.487656    4.078939    -17.578606    -36.191647    -20.531303    -50.907055    37.243629    -58.548279    -44.248077    -19.647247    -45.104328    -34.517223    12.234614    7.898608    -10.187354    33.202782    16.140081    15.655218    -12.870034    3.256210    35.195095    -22.769615    -0.224061    36.335575    28.425592    0.538657    4.612235    -5.500285    43.226154    -16.928009    9.861795    -25.784042    36.153145    0.000000    0.000000    0.000000    -84.897667    -43.932484    -51.966164    10.289665    17.212843    -9.294079    19.256912    10.046245    -34.354942    0.000000    0.000000    0.000000    
-19.987612    161.795563    -76.067078    -8.703814    -26.207006    42.897758    4.119009    6.929052    -3.772650    2.955770    7.879329    -1.376119    17.049650    3.397377    -7.238570    7.784478    -5.648600    -8.088721    7.477166    3.970383    -17.524370    -35.980457    -20.709526    -50.352371    37.150509    -58.426037    -44.139175    -19.693047    -44.980579    -34.585091    12.214341    7.917381    -10.179960    33.247238    16.081049    15.574430    -12.848029    3.295025    35.194324    -22.766003    -0.196779    36.360806    28.422180    0.593533    4.618108    -5.460060    43.186897    -16.916101    9.826875    -25.789869    36.126194    0.000000    0.000000    0.000000    -84.840607    -43.929008    -51.853531    10.289627    17.211842    -9.278874    19.297758    10.012293    -34.366764    0.000000    0.000000    0.000000    
-19.981758    161.804245    -76.057503    -8.668190    -26.248941    42.916298    4.134905    6.970071    -3.747729    2.965727    7.863255    -1.367265    16.990602    3.444415    -7.276280    7.857256    -5.669445    -8.098440    7.459611    3.828421    -17.449450    -35.747372    -20.772408    -49.881363    37.333759    -58.374931    -43.770382    -19.731537    -44.942806    -34.619625    12.187816    7.935997    -10.178870    33.294018    16.048660    15.506845    -12.836679    3.318556    35.186260    -22.760563    -0.179590    36.376778    28.417582    0.653655    4.603704    -5.417309    43.157669    -16.920082    9.767344    -25.805016    36.099228    0.000000    0.000000    0.000000    -84.765434    -43.921547    -51.760857    10.276238    17.205788    -9.171746    19.316690    9.971137    -34.410698    0.000000    0.000000    0.000000    
-19.969807    161.807419    -76.044083    -8.627752    -26.296989    42.940311    4.154680    7.005625    -3.723600    2.981792    7.860672    -1.359397    16.883373    3.482172    -7.320446    7.982625    -5.673232    -8.101706    7.440476    3.863578    -17.437498    -35.439659    -21.044500    -49.324966    37.188084    -58.254715    -43.733604    -19.739878    -44.835690    -34.623741    12.150478    7.963995    -10.178418    33.345650    16.020039    15.447138    -12.832600    3.332807    35.174427    -22.752033    -0.166660    36.383499    28.416744    0.715932    4.572754    -5.402347    43.138206    -16.897713    9.706483    -25.835545    36.088150    0.000000    0.000000    0.000000    -84.693916    -43.907288    -51.639084    10.278457    17.207880    -9.060044    19.337633    9.918212    -34.476830    0.000000    0.000000    0.000000    
-19.964848    161.814682    -76.033997    -8.598588    -26.339132    42.959797    4.178421    7.031379    -3.692236    2.989916    7.859026    -1.348587    16.787188    3.526293    -7.371813    8.103593    -5.691967    -8.112726    7.452941    3.764234    -17.407455    -35.316650    -21.238503    -48.827084    37.955170    -57.706627    -43.261681    -19.375765    -44.261501    -33.185482    12.116025    7.983116    -10.185314    33.402496    16.012466    15.388577    -12.843683    3.341987    35.157745    -22.717308    -0.144114    36.383759    28.418144    0.757378    4.537910    -5.366335    43.134796    -16.931890    9.641598    -25.850313    36.104694    0.000000    0.000000    0.000000    -84.616180    -43.895344    -51.535755    10.261358    17.202608    -8.990688    19.375080    9.878402    -34.480232    0.000000    0.000000    0.000000    
-19.957245    161.817810    -76.026367    -8.566744    -26.376591    42.981190    4.205531    7.056768    -3.660484    2.991186    7.853409    -1.337040    16.701664    3.545909    -7.413603    8.193089    -5.681778    -8.126783    7.458824    3.655668    -17.388325    -35.025238    -21.281969    -48.270363    37.979694    -57.724865    -43.028065    -19.571507    -44.269360    -33.432640    12.071766    7.987518    -10.198936    33.464577    15.990763    15.329638    -12.820547    3.374806    35.142281    -22.718266    -0.122811    36.392181    28.420805    0.794051    4.472985    -5.392515    43.134819    -16.906277    9.584430    -25.876925    36.140961    0.000000    0.000000    0.000000    -84.545784    -43.888382    -51.457264    10.235677    17.196346    -8.986137    19.395994    9.865790    -34.432884    0.000000    0.000000    0.000000    
-19.952349    161.824600    -76.021500    -8.548201    -26.400822    42.998154    4.226584    7.066726    -3.626144    2.994648    7.831060    -1.324643    16.637491    3.598096    -7.458721    8.257275    -5.697337    -8.145003    7.470449    3.574063    -17.367414    -34.760071    -21.320074    -47.770374    37.964485    -57.758331    -42.855415    -19.641361    -44.328220    -33.619682    12.036845    8.004624    -10.205489    33.519859    15.976881    15.267635    -12.799032    3.403579    35.111622    -22.694920    -0.096167    36.389824    28.423552    0.811630    4.424130    -5.403002    43.140648    -16.930126    9.532746    -25.891651    36.195797    0.000000    0.000000    0.000000    -84.494797    -43.876495    -51.399734    10.221974    17.191387    -8.934074    19.422037    9.827113    -34.435658    0.000000    0.000000    0.000000    
-19.950819    161.832077    -76.020813    -8.532933    -26.422846    43.016441    4.253804    7.079589    -3.594586    2.995715    7.803460    -1.312768    16.554222    3.653946    -7.504370    8.338680    -5.720052    -8.157226    7.469299    3.466447    -17.347464    -34.604328    -21.461580    -47.306232    37.866119    -57.616165    -42.827477    -19.635012    -44.188259    -33.550129    12.002822    8.031629    -10.227377    33.578983    16.018539    15.225212    -12.845328    3.375210    35.078674    -22.653269    -0.097395    36.380096    28.435509    0.823927    4.349354    -5.456952    43.138645    -16.904762    9.489715    -25.895679    36.240467    0.000000    0.000000    0.000000    -84.451698    -43.871136    -51.367249    10.191695    17.198683    -8.869718    19.450668    9.797841    -34.440006    0.000000    0.000000    0.000000    
